<svg xmlns="http://www.w3.org/2000/svg" width="256" height="256" viewBox="0 0 256 256" role="img" aria-label="Teahouse icon">

<defs>
  <linearGradient id="markGreen" x1="35" y1="12" x2="213" y2="228" gradientUnits="userSpaceOnUse">
    <stop offset="0" stop-color="#91d354"/>
    <stop offset="0.36" stop-color="#54be43"/>
    <stop offset="0.72" stop-color="#28a84c"/>
    <stop offset="1" stop-color="#16984a"/>
  </linearGradient>
  <linearGradient id="bgGreen" x1="20" y1="4" x2="222" y2="242" gradientUnits="userSpaceOnUse">
    <stop offset="0" stop-color="#2fb857"/>
    <stop offset="0.55" stop-color="#21a34b"/>
    <stop offset="1" stop-color="#178f43"/>
  </linearGradient>
  <linearGradient id="bgDarkGreen" x1="16" y1="5" x2="224" y2="241" gradientUnits="userSpaceOnUse">
    <stop offset="0" stop-color="#173a2b"/>
    <stop offset="0.7" stop-color="#0d271d"/>
    <stop offset="1" stop-color="#091b15"/>
  </linearGradient>
  <radialGradient id="softPale" cx="31%" cy="19%" r="78%">
    <stop offset="0" stop-color="#e8f9df"/>
    <stop offset="0.68" stop-color="#eff9ea"/>
    <stop offset="1" stop-color="#e7f3df"/>
  </radialGradient>
  <radialGradient id="cardWhite" cx="31%" cy="20%" r="82%">
    <stop offset="0" stop-color="#ffffff"/>
    <stop offset="0.74" stop-color="#fbfcfb"/>
    <stop offset="1" stop-color="#f4f6f5"/>
  </radialGradient>
  <filter id="cardShadow" x="-20%" y="-20%" width="140%" height="145%">
    <feDropShadow dx="0" dy="10" stdDeviation="14" flood-color="#10251b" flood-opacity="0.14"/>
  </filter>
  <filter id="softShadow" x="-20%" y="-20%" width="140%" height="145%">
    <feDropShadow dx="0" dy="7" stdDeviation="8" flood-color="#12271e" flood-opacity="0.12"/>
  </filter>
</defs>

<path d="M0 90.07C-2.78 101.84 -1.94 146.49 0 151.18C0.3 151.91 0.83 151.7 1.05 152.23C1.42 153.12 0.68 155.54 1.05 156.44C1.27 156.97 1.9 156.99 2.11 157.5C2.41 158.23 1.81 159.93 2.11 160.66C2.32 161.16 2.87 161.13 3.16 161.71C3.81 163.01 3.49 166.78 4.21 169.09C4.91 171.34 7 173.84 7.37 175.41C7.57 176.27 7.14 176.55 7.37 177.51C7.96 179.99 11.99 187.79 13.7 190.16C14.48 191.25 15.16 191.38 15.8 192.26C16.6 193.37 16.86 194.91 17.91 196.48C19.53 198.9 24.7 203.38 25.28 204.91C25.46 205.38 25.09 205.51 25.28 205.96C25.87 207.39 31.23 212.74 32.66 213.33C33.11 213.52 33.33 213.17 33.71 213.33C34.34 213.59 35.5 214.66 35.82 215.44C36.09 216.09 36.04 216.61 35.82 217.55C35.3 219.76 31.07 225.87 30.55 228.08C30.33 229.02 30.77 229.45 30.55 230.19C30.25 231.18 28.74 232.36 28.44 233.35C28.22 234.09 28.67 234.58 28.44 235.46C27.97 237.22 24.88 240.38 24.23 242.83C23.67 244.94 23.5 247.38 24.23 249.15C24.94 250.87 26.8 252.69 28.44 253.37C29.98 254.01 32.09 253.75 33.71 253.37C35.24 253.01 36.28 251.78 37.93 251.26C40 250.61 43.23 250.86 45.3 250.21C46.95 249.69 48.17 248.42 49.51 248.1C50.61 247.84 51.94 248.4 52.67 248.1C53.17 247.89 53.15 247.34 53.73 247.05C55.03 246.4 59.03 246.64 61.1 245.99C62.75 245.47 63.67 244.4 65.32 243.88C67.39 243.23 71.39 243.48 72.69 242.83C73.27 242.54 73.28 241.97 73.74 241.78C74.29 241.55 75.3 242.01 75.85 241.78C76.31 241.59 76.4 240.93 76.91 240.72C77.64 240.42 79.34 241.02 80.07 240.72C80.57 240.51 80.62 239.88 81.12 239.67C81.85 239.37 83.55 239.97 84.28 239.67C84.78 239.46 84.87 238.81 85.33 238.62C85.88 238.39 86.89 238.39 87.44 238.62C87.9 238.81 87.8 239.39 88.49 239.67C91.5 240.92 113.93 240.92 116.94 239.67C117.63 239.39 117.44 238.85 117.99 238.62C119.03 238.19 122.22 239.05 123.26 238.62C123.81 238.39 123.73 237.85 124.31 237.56C125.61 236.91 130.39 237.16 131.69 236.51C132.27 236.22 132.28 235.65 132.74 235.46C133.29 235.23 134.3 235.69 134.85 235.46C135.31 235.27 135.44 234.59 135.9 234.4C136.45 234.17 137.46 234.63 138.01 234.4C138.47 234.21 138.51 233.64 139.06 233.35C140.1 232.79 142.25 233.01 144.33 232.3C147.7 231.15 154.59 227.69 156.97 225.98C158.06 225.19 158.45 224.13 159.08 223.87C159.46 223.71 159.75 224.03 160.13 223.87C160.76 223.61 161.35 222.4 162.24 221.76C163.35 220.96 165.12 220.61 166.45 219.65C167.95 218.57 169.67 215.85 170.67 215.44C171.09 215.27 171.24 215.65 171.72 215.44C173.91 214.49 185.58 201.9 186.47 199.64C186.67 199.14 186.31 199.03 186.47 198.58C186.87 197.44 189.81 194.92 190.68 193.32C191.3 192.19 191.13 191.15 191.74 190.16C192.45 189.02 193.16 187.72 194.9 187C198.68 185.43 213.46 188.05 215.97 187C216.64 186.72 216.52 186.15 217.02 185.94C217.75 185.64 219.45 186.24 220.18 185.94C220.68 185.73 220.68 185.18 221.23 184.89C222.27 184.33 224.71 184.46 226.5 183.84C228.56 183.13 231.33 181.74 232.82 180.67C233.78 179.98 234.3 178.83 234.93 178.57C235.31 178.42 235.51 178.77 235.98 178.57C237.76 177.83 245.78 169.81 246.52 168.03C246.72 167.56 246.36 167.36 246.52 166.98C246.78 166.35 247.93 165.84 248.63 164.87C249.7 163.38 251.42 160.13 251.79 158.55C251.99 157.69 251.56 156.99 251.79 156.44C251.98 155.98 252.65 155.85 252.84 155.39C253.07 154.84 252.65 154.08 252.84 153.28C253.12 152.09 254.48 151.05 254.95 149.07C255.89 145.09 255.93 132.48 254.95 130.11C254.67 129.44 254.08 129.51 253.89 129.05C253.66 128.5 254.12 127.5 253.89 126.95C253.7 126.49 253.13 126.44 252.84 125.89C252.28 124.85 252.4 122.42 251.79 120.63C251.08 118.57 249.83 115.97 248.63 114.3C247.67 112.97 245.81 111.97 245.47 111.14C245.3 110.74 245.66 110.54 245.47 110.09C244.88 108.66 239.52 103.31 238.09 102.72C237.64 102.53 237.42 102.88 237.04 102.72C236.41 102.46 235.56 100.87 234.93 100.61C234.55 100.45 234.26 100.77 233.88 100.61C233.25 100.35 232.66 99.14 231.77 98.5C230.66 97.7 228.75 96.68 227.56 96.4C226.76 96.21 226.25 96.59 225.45 96.4C224.26 96.12 222.68 94.63 221.23 94.29C219.86 93.97 217.91 94.66 217.02 94.29C216.49 94.07 216.57 93.48 215.97 93.23C214.55 92.64 209.33 93.97 207.54 93.23C206.48 92.79 205.79 91.99 205.43 91.13C205.06 90.25 205.71 89.17 205.43 87.97C205.01 86.18 203.34 83.14 202.27 81.65C201.57 80.68 200.42 80.17 200.16 79.54C200 79.16 200.33 78.89 200.16 78.49C199.82 77.66 197.83 75.67 197 75.33C196.6 75.16 196.4 75.49 195.95 75.33C194.82 74.93 192.08 72.01 190.68 71.11C189.86 70.58 189.3 70.23 188.58 70.06C187.9 69.9 187.02 70.29 186.47 70.06C186.01 69.87 186.19 69.32 185.42 69C177.3 65.61 42.99 63.83 21.07 69C15.2 70.39 13.31 72.26 10.53 74.27C8.32 75.87 6.87 77.33 5.27 79.54C3.26 82.33 1.22 84.9 0 90.07ZM22.12 95.34C23.4 92.26 23.92 91.51 27.39 90.07C43.05 83.58 163.43 83.58 179.09 90.07C182.56 91.51 183.33 92.86 184.36 95.34C185.8 98.83 183.52 108.07 184.36 110.09C184.63 110.73 185.16 110.52 185.42 111.14C186.14 112.88 186.14 120.99 185.42 122.73C185.16 123.36 184.64 123.1 184.36 123.79C183.19 126.61 185.52 146.26 184.36 149.07C184.08 149.75 183.53 149.59 183.31 150.12C182.94 151.01 183.68 153.45 183.31 154.34C183.09 154.87 182.48 154.86 182.26 155.39C181.89 156.28 182.63 158.7 182.26 159.6C182.04 160.13 181.5 160.11 181.2 160.66C180.64 161.7 180.88 163.79 180.15 165.93C178.87 169.67 175.24 176.89 172.77 180.67C171.02 183.34 167.97 185.72 167.51 187C167.35 187.46 167.71 187.56 167.51 188.05C166.61 190.23 154.94 201.9 152.76 202.8C152.27 203 152.18 202.64 151.7 202.8C150.18 203.31 146.17 207.33 143.28 209.12C140.55 210.81 136.76 212.88 134.85 213.33C133.95 213.54 133.29 213.1 132.74 213.33C132.28 213.52 132.15 214.2 131.69 214.39C131.14 214.62 130.38 214.2 129.58 214.39C128.39 214.67 126.71 216.17 125.37 216.49C124.27 216.75 122.94 216.19 122.21 216.49C121.7 216.7 121.68 217.33 121.15 217.55C120.25 217.92 117.84 217.18 116.94 217.55C116.41 217.77 116.48 218.35 115.88 218.6C114.46 219.19 108.88 218.01 107.46 218.6C106.86 218.85 106.97 219.41 106.4 219.65C105.22 220.13 101.25 220.14 100.08 219.65C99.51 219.41 99.66 218.86 99.03 218.6C97.19 217.84 88.23 217.84 86.39 218.6C85.76 218.86 85.79 219.46 85.33 219.65C84.78 219.88 84.09 219.45 83.23 219.65C81.66 220.02 78.7 222.39 76.91 222.81C75.71 223.09 74.84 222.55 73.74 222.81C72.4 223.13 70.97 224.58 69.53 224.92C68.16 225.24 66.22 224.55 65.32 224.92C64.79 225.14 64.79 225.76 64.26 225.98C63.36 226.35 60.94 225.61 60.05 225.98C59.52 226.2 59.46 226.84 59 227.03C58.45 227.26 57.44 227.26 56.89 227.03C56.43 226.84 56.05 226.48 55.84 225.98C55.54 225.25 55.54 223.54 55.84 222.81C56.05 222.31 56.7 222.22 56.89 221.76C57.12 221.21 56.66 220.2 56.89 219.65C57.08 219.19 57.75 219.06 57.94 218.6C58.17 218.05 57.75 217.29 57.94 216.49C58.22 215.3 59.69 213.81 60.05 212.28C60.43 210.66 60.69 208.56 60.05 207.01C59.37 205.37 57.34 203.88 55.84 202.8C54.51 201.84 53.28 201.89 51.62 200.69C48.38 198.36 39.8 190.03 38.98 188.05C38.78 187.57 39.15 187.46 38.98 187C38.52 185.72 35.4 183.26 33.71 180.67C31.49 177.28 27.98 170.51 27.39 168.03C27.16 167.07 27.61 166.67 27.39 165.93C27.09 164.94 25.62 163.88 25.28 162.77C24.97 161.76 25.58 160.33 25.28 159.6C25.07 159.1 24.44 159.05 24.23 158.55C23.93 157.82 24.53 156.12 24.23 155.39C24.02 154.89 23.41 154.89 23.18 154.34C22.75 153.3 23.61 150.11 23.18 149.07C22.95 148.52 22.42 148.75 22.12 148.02C20.32 143.71 18.73 103.53 22.12 95.34ZM165.4 3.69C164.94 2.58 164.47 2.07 163.29 1.58C160.57 0.45 149.6 0.71 147.49 1.58C146.84 1.85 146.94 2.42 146.44 2.63C145.71 2.93 144.01 2.33 143.28 2.63C142.77 2.84 142.75 3.47 142.22 3.69C141.32 4.06 138.91 3.32 138.01 3.69C137.48 3.91 137.41 4.55 136.95 4.74C136.4 4.97 135.75 4.53 134.85 4.74C132.94 5.19 128.23 7.64 126.42 8.95C125.4 9.68 124.94 10.8 124.31 11.06C123.93 11.22 123.72 10.87 123.26 11.06C121.71 11.7 116.83 16.72 114.83 19.49C113.29 21.62 112.74 24.32 111.67 25.81C110.97 26.78 109.88 27.15 109.56 27.92C109.29 28.57 109.79 29.47 109.56 30.02C109.37 30.48 108.7 30.62 108.51 31.08C108.28 31.63 108.7 32.39 108.51 33.19C108.23 34.38 106.78 35.8 106.4 37.4C105.96 39.25 106.89 42.55 106.4 43.72C106.16 44.29 105.6 44.16 105.35 44.77C104.72 46.3 104.72 52.73 105.35 54.26C105.6 54.87 106.21 54.85 106.4 55.31C106.63 55.86 106.02 56.81 106.4 57.42C106.96 58.33 108.74 59.08 110.62 59.52C113.82 60.27 122.37 60.32 124.31 59.52C124.95 59.26 124.84 58.69 125.37 58.47C126.27 58.1 128.69 58.84 129.58 58.47C130.11 58.25 130.08 57.71 130.63 57.42C131.67 56.86 133.99 57.02 135.9 56.36C138.43 55.49 141.47 54.21 144.33 52.15C148.1 49.43 155.14 42.44 155.92 40.56C156.12 40.08 155.77 39.89 155.92 39.51C156.18 38.88 157.33 38.36 158.02 37.4C159.09 35.91 160.82 32.66 161.19 31.08C161.39 30.22 161 29.77 161.19 28.97C161.47 27.78 162.97 26.1 163.29 24.76C163.55 23.66 162.99 22.33 163.29 21.6C163.5 21.09 164.12 21.1 164.35 20.54C164.78 19.5 163.92 16.32 164.35 15.28C164.58 14.72 165.15 14.84 165.4 14.22C166.08 12.58 166.26 5.77 165.4 3.69ZM208.59 113.25C210.53 112.57 215.59 113.57 218.07 114.3C219.81 114.81 220.74 115.3 222.29 116.41C224.75 118.18 228.72 122.07 230.72 124.84C232.26 126.97 233.46 129.37 233.88 131.16C234.16 132.36 233.58 133.59 233.88 134.32C234.09 134.82 234.69 134.79 234.93 135.37C235.47 136.67 235.47 141.45 234.93 142.75C234.69 143.33 234.1 143.27 233.88 143.8C233.51 144.69 234.23 146.52 233.88 148.02C233.42 149.97 232.3 152.15 230.72 154.34C228.55 157.35 223.34 162.3 221.23 163.82C220.35 164.46 219.85 164.7 219.13 164.87C218.45 165.03 217.57 164.64 217.02 164.87C216.56 165.06 216.47 165.72 215.97 165.93C215.24 166.23 213.54 165.63 212.81 165.93C212.31 166.14 212.34 166.74 211.75 166.98C210.45 167.52 206.01 167.66 204.38 166.98C203.34 166.55 202.27 165.45 202.27 164.87C202.27 164.46 203.11 164.35 203.33 163.82C203.7 162.93 202.96 160.49 203.33 159.6C203.55 159.07 204.16 159.08 204.38 158.55C204.75 157.66 204.01 155.24 204.38 154.34C204.6 153.81 205.19 153.87 205.43 153.28C205.97 151.98 204.89 147.21 205.43 145.91C205.67 145.33 206.2 145.55 206.49 144.86C207.77 141.78 204.82 119.41 206.49 115.36C207.02 114.07 207.51 113.63 208.59 113.25ZM68.48 16.33C67.22 16.99 66.78 18.8 66.37 20.54C65.78 23.01 65.74 28.48 66.37 30.02C66.62 30.63 67.2 30.55 67.42 31.08C67.79 31.98 67.04 34.04 67.42 35.29C67.78 36.48 69.23 37.46 69.53 38.45C69.75 39.19 69.37 39.88 69.53 40.56C69.7 41.28 70.1 42 70.58 42.67C71.12 43.42 72.43 44.14 72.69 44.77C72.85 45.15 72.51 45.39 72.69 45.83C73.17 46.99 76.8 50.61 77.96 51.09C78.39 51.27 78.63 50.93 79.01 51.09C79.64 51.35 80.23 52.56 81.12 53.2C82.23 54 84.14 55.03 85.33 55.31C86.13 55.5 86.89 55.08 87.44 55.31C87.9 55.5 87.99 56.15 88.49 56.36C89.22 56.66 90.92 56.06 91.65 56.36C92.16 56.57 92.25 57.23 92.71 57.42C93.26 57.65 94.16 57.69 94.81 57.42C95.58 57.1 96.43 56.49 96.92 55.31C98.05 52.59 97.79 41.63 96.92 39.51C96.65 38.86 96.06 38.91 95.87 38.45C95.64 37.9 96.07 37.21 95.87 36.35C95.5 34.77 93.91 31.69 92.71 30.02C91.75 28.69 89.89 27.69 89.55 26.86C89.38 26.46 89.74 26.11 89.55 25.81C89.27 25.36 88.17 25.28 87.44 24.76C86.44 24.04 85.69 22.62 84.28 21.6C82.23 20.12 78.64 18.25 75.85 17.38C73.37 16.61 70.06 15.5 68.48 16.33ZM60.05 138.53C59.12 138.75 58.67 139.06 57.94 139.59C56.94 140.31 55.5 141.75 54.78 142.75C54.26 143.48 53.9 144.14 53.73 144.86C53.57 145.54 53.96 146.41 53.73 146.96C53.54 147.42 52.86 147.56 52.67 148.02C52.44 148.57 52.44 149.57 52.67 150.12C52.86 150.58 53.52 150.67 53.73 151.18C54.03 151.91 53.3 153.3 53.73 154.34C54.32 155.77 56.71 157.67 57.94 158.55C58.71 159.11 59.08 159.37 60.05 159.6C61.89 160.03 66.69 160.34 68.48 159.6C69.54 159.16 69.95 157.76 70.58 157.5C70.96 157.34 71.28 157.69 71.64 157.5C72.32 157.14 73.44 155.33 73.74 154.34C73.96 153.6 73.51 152.78 73.74 152.23C73.93 151.77 74.58 151.71 74.8 151.18C75.17 150.29 75.17 147.85 74.8 146.96C74.58 146.43 73.93 146.37 73.74 145.91C73.51 145.36 74.05 144.55 73.74 143.8C73.22 142.54 70.79 140.11 69.53 139.59C68.78 139.28 67.97 139.82 67.42 139.59C66.96 139.4 66.94 138.77 66.37 138.53C65.2 138.04 61.56 138.17 60.05 138.53ZM140.12 138.53C138.52 138.91 137.02 139.84 135.9 140.64C135.01 141.28 134.11 141.97 133.79 142.75C133.52 143.4 134.02 144.31 133.79 144.86C133.6 145.32 132.98 145.33 132.74 145.91C132.2 147.21 132.34 151.6 132.74 153.28C132.96 154.23 133.18 154.64 133.79 155.39C134.81 156.66 136.95 158.86 139.06 159.6C141.42 160.43 145.65 160.03 147.49 159.6C148.46 159.37 148.87 159.07 149.6 158.55C150.6 157.83 152.33 156.43 152.76 155.39C153.05 154.68 152.53 153.83 152.76 153.28C152.95 152.82 153.57 152.8 153.81 152.23C154.3 151.06 154.17 147.42 153.81 145.91C153.59 144.99 153.32 144.57 152.76 143.8C151.88 142.57 149.77 140.48 148.54 139.59C147.77 139.03 147.36 138.75 146.44 138.53C144.93 138.17 141.97 138.09 140.12 138.53ZM100.08 138.53C99.16 138.75 98.75 139.03 97.98 139.59C96.75 140.48 94.64 142.57 93.76 143.8C93.2 144.57 92.93 144.99 92.71 145.91C92.35 147.42 92.17 150.29 92.71 152.23C93.24 154.15 94.96 156.99 95.87 157.5C96.24 157.71 96.54 157.35 96.92 157.5C97.55 157.76 98.17 159.24 99.03 159.6C99.92 159.97 101.27 159.38 102.19 159.6C102.99 159.79 103.74 160.75 104.3 160.66C104.74 160.59 104.89 159.79 105.35 159.6C105.9 159.37 106.78 159.76 107.46 159.6C108.18 159.43 108.83 159.07 109.56 158.55C110.56 157.83 112 156.39 112.72 155.39C113.25 154.66 113.55 154.23 113.78 153.28C114.18 151.6 114.18 147.59 113.78 145.91C113.55 144.96 113.28 144.57 112.72 143.8C111.83 142.57 109.74 140.48 108.51 139.59C107.74 139.03 107.33 138.75 106.4 138.53C104.89 138.17 101.59 138.17 100.08 138.53Z" fill="url(#markGreen)" fill-rule="evenodd"/>
</svg>
